<?xml version="1.0" encoding="UTF-8"?>
<svg id="Layer_2" data-name="Layer 2" xmlns="http://www.w3.org/2000/svg" viewBox="0 0 347.84 280.86">
  <defs>
    <style>
      .cls-1 {
        fill: #ffd71b;
      }
    </style>
  </defs>
  <g id="_Слой_0_Image" data-name="Слой 0 Image">
    <path class="cls-1" d="m347.84,224.96s-61.63,53.93-81.36,25.35c0,0-5.02-11.5,20.63-22.99,0,0,57.47-30.07,52.46-97.86,0,0-5.88-45.11-77.81-40.09,0,0,35.38-22.56,37.74-45.48,2.36-22.92,18.86-21.73,18.86-21.73,0,0,20.04,1.19,2.36,38.92,0,0,27.12-30.77,10.6-53.07-29.47-35.35-94.33,56.6-122.62,79-28.3,22.4-50.69,4.72-50.69,4.72l1.17-83.72H0v271.19h159.18V125.91s40.09-9.43,49.52,25.94c9.43,35.38-10.61,62.48-8.25,88.43,2.36,25.94,43.63,38.91,43.63,38.91,0,0,81.83,16.51,103.76-54.23Z"/>
  </g>
</svg>