<?xml version="1.0" encoding="UTF-8"?>
<svg id="Layer_2" data-name="Layer 2" xmlns="http://www.w3.org/2000/svg" viewBox="0 0 119.24 412.47">
  <defs>
    <style>
      .cls-1 {
        fill: #ff2f2d;
      }
    </style>
  </defs>
  <g id="_Слой_0_Image" data-name="Слой 0 Image">
    <path class="cls-1" d="m99.23,41.85l-.06.02C96,18.14,78.8,0,58.06,0S20.12,18.14,16.96,41.87L0,350.1l.13-2.27c0,37.76,30.05,64.64,60.65,64.64s58.46-27.57,58.46-64.64L99.23,41.85Zm-40.58,326.66c-12.53,0-24.81-11.01-24.81-26.45l-.04.94L41.8,61.09c1.28-9.7,8.34-17.12,16.83-17.12s15.52,7.42,16.83,17.12h0l8,280.97c0,15.15-12.29,26.45-24.81,26.45Z"/>
  </g>
</svg>